<svg xmlns="http://www.w3.org/2000/svg" xmlns:xlink="http://www.w3.org/1999/xlink" height="128" width="128"><defs><linearGradient id="b"><stop offset="0" stop-color="#3d3d3d"/><stop offset=".5" stop-color="#686868" stop-opacity=".498"/><stop offset="1" stop-color="#686868" stop-opacity="0"/></linearGradient><linearGradient id="a"><stop offset="0" stop-color="#fff"/><stop offset=".424" stop-color="#fff" stop-opacity=".235"/><stop offset=".821" stop-color="#fff" stop-opacity=".157"/><stop offset="1" stop-color="#fff" stop-opacity=".392"/></linearGradient><linearGradient y2="39.994" x2="71.204" y1="15.761" x1="71.204" gradientTransform="translate(-236.033 -50.534) scale(4.16388)" gradientUnits="userSpaceOnUse" id="f" xlink:href="#a"/><radialGradient r="62.769" fy="186.171" fx="99.157" cy="186.171" cx="99.157" gradientTransform="matrix(.68694 0 0 -.21462 -4.022 148.484)" gradientUnits="userSpaceOnUse" id="d" xlink:href="#b"/><linearGradient id="c"><stop offset="0" stop-color="#55c1ec"/><stop offset="1" stop-color="#3689e6"/></linearGradient><radialGradient xlink:href="#c" id="e" gradientUnits="userSpaceOnUse" gradientTransform="matrix(0 6.3385 -6.70538 0 305.329 -18.275)" cx="3.972" cy="8.45" fx="3.972" fy="8.45" r="20"/></defs><path d="M107.212 108.529c.005-7.441-19.301-13.475-43.119-13.475-23.817 0-43.124 6.034-43.118 13.475-.006 7.44 19.8 13.474 43.618 13.474s42.624-6.033 42.619-13.474z" fill="url(#d)"/><path style="marker:none" d="M248.67 21.5c-28.692 0-52 23.308-52 52s23.308 52 52 52c28.691 0 52-23.308 52-52s-23.309-52-52-52z" color="#000" overflow="visible" fill="url(#e)" transform="translate(-184.17 -8)"/><path d="M64.5 13.5c28.692 0 52 23.308 52 52s-23.308 52-52 52-52-23.308-52-52 23.308-52 52-52z" style="marker:none;isolation:auto;mix-blend-mode:normal;solid-color:#000;solid-opacity:1;filter-blend-mode:normal;filter-gaussianBlur-deviation:0" color="#000" overflow="visible" stroke="#003651" opacity=".5" stroke-linecap="round" stroke-linejoin="round" fill="none"/><path d="M115.5 65.5c0 28.167-22.834 51-51 51-28.167 0-51-22.833-51-51s22.833-51 51-51c28.166 0 51 22.833 51 51z" style="marker:none" color="#000" overflow="visible" opacity=".5" fill="none" stroke="url(#f)" stroke-linecap="round" stroke-linejoin="round"/><path style="isolation:auto;mix-blend-mode:normal;solid-color:#000;solid-opacity:1;marker:none;filter-blend-mode:normal;filter-gaussianBlur-deviation:0" d="M64 36.996c-11.91 0-21.625 9.318-21.625 20.832 0 11.514 9.715 20.83 21.625 20.83s21.625-9.316 21.625-20.83c0-11.514-9.715-20.832-21.625-20.832zm-7.559 42.977c-9.676 0-18.05 5.699-22.26 14.033a1.003 1.003 0 0 0 .163 1.139c7.416 7.91 17.96 12.859 29.656 12.859 11.696 0 22.24-4.949 29.656-12.86a1.003 1.003 0 0 0 .162-1.138c-4.21-8.334-12.583-14.033-22.26-14.033H56.442z" color="#000" overflow="visible" opacity=".07"/><path style="marker:none;isolation:auto;mix-blend-mode:normal;solid-color:#000;solid-opacity:1;filter-blend-mode:normal;filter-gaussianBlur-deviation:0" d="M64 38c-11.388 0-20.62 8.877-20.62 19.828 0 10.95 9.232 19.827 20.62 19.827 11.388 0 20.62-8.877 20.62-19.827C84.62 46.878 75.389 38 64 38zm-7.56 42.976c-9.282 0-17.311 5.462-21.363 13.483C42.312 102.176 52.587 107 64 107c11.413 0 21.688-4.824 28.923-12.54-4.052-8.022-12.08-13.484-21.364-13.484H56.441z" color="#000" overflow="visible" opacity=".15"/><path style="marker:none" d="M64 37c-11.388 0-20.62 8.877-20.62 19.828 0 10.95 9.232 19.827 20.62 19.827 11.388 0 20.62-8.877 20.62-19.827C84.62 45.878 75.389 37 64 37zm-7.56 42.976c-9.282 0-17.311 5.462-21.363 13.483C42.312 101.176 52.587 106 64 106c11.413 0 21.688-4.824 28.923-12.54-4.052-8.022-12.08-13.484-21.364-13.484H56.441z" color="#000" overflow="visible" fill="#fff"/></svg>
